<svg id="Layer_1" data-name="Layer 1" xmlns="http://www.w3.org/2000/svg" viewBox="0 0 373.77 150.45"><defs><style>.cls-1{fill:#fff;}</style></defs><title>Signature</title><path class="cls-1" d="M216.58,286A508.69,508.69,0,0,1,237,149.85c.4-1.36-1.53-2.65-2.51-1.46a303.23,303.23,0,0,1-148.7,98.9l.8,2.89c81.87-33.12,171.6-31.34,257.58-45.15a495.9,495.9,0,0,0,72.36-16.74,1.51,1.51,0,0,0-.4-2.95L342.59,185a1.5,1.5,0,0,0,0,3l73.49.35-.4-2.95c-84,26.81-173.31,23.56-259.08,41a403,403,0,0,0-70.85,20.86c-1.74.7-1.1,3.45.8,2.89a306,306,0,0,0,150-99.67L234.06,149a511.82,511.82,0,0,0-20.48,137,1.5,1.5,0,0,0,3,0Z" transform="translate(-84.73 -142.06)"/><path class="cls-1" d="M237,150.9a825.5,825.5,0,0,1,18.35,140.16c.09,1.92,3,1.94,3,0l-.18-7.42c0-1.93-3-1.93-3,0l.18,7.42h3a830.3,830.3,0,0,0-18.46-141c-.41-1.88-3.31-1.09-2.89.8Z" transform="translate(-84.73 -142.06)"/><path class="cls-1" d="M246.93,159.14c14.25-9.92,32-15.44,49.4-13.84,8.54.78,18,4,21.12,12.86,3.07,8.58-.64,18.39-4.61,26-14.44,27.67-43.44,46.57-74.5,49l1.45,1.9c5.32-13.15,21.4-17.44,33.19-10.23,13.13,8,15.63,24.9,9.11,38l2.74,1.16a129,129,0,0,0,8-56.27l-2.95.4,7.47,36.09a1.51,1.51,0,0,0,2.51.66,49.76,49.76,0,0,0,15.42-35c0-1.65-2.69-2.1-2.95-.4l-4.65,30.76a1.52,1.52,0,0,0,2.2,1.69A32.21,32.21,0,0,0,326,212.49a1.52,1.52,0,0,0-1.1-1.45c-10.6-1.77-19.38,12.24-9.57,19.28,3.8,2.73,9.28,3.29,13.26.63,2.62-1.75,4.39-4.95,6.18-7.44L344,210.65c.71-1-.27-2.19-1.3-2.26-6.21-.4-12.34,3.64-13.3,10.05a12.3,12.3,0,0,0,9.47,13.62c12.46,2.58,19.7-13.2,12.22-22.26a1.51,1.51,0,0,0-1.82-.23c-5,3-3.79,10.76,1.6,12.66,9.16,3.23,14.31-7.27,16.66-14.11l-2.95-.4.44,11.33a1.51,1.51,0,0,0,2.8.76l11.39-18.35c1-1.65-1.57-3.15-2.59-1.51L365.2,218.29l2.8.76-.44-11.33a1.51,1.51,0,0,0-2.95-.4c-1.26,3.67-2.54,7.79-5.71,10.27-1.76,1.38-4.22,2.72-6.6,2-2.91-.91-5-5.38-1.54-7.42l-1.82-.23c4.84,5.87,1.6,16.14-6.2,17.25a9.16,9.16,0,0,1-10.5-9c0-5.63,5.24-9.15,10.43-8.81l-1.3-2.26-8.09,11.26c-2.56,3.56-4.9,8.61-9.72,9.21-3.64.45-7.7-1.39-9.1-4.92-2.33-5.88,3.86-11.7,9.58-10.74l-1.1-1.45a29.22,29.22,0,0,1-14.62,26.87l2.2,1.69,4.65-30.76-2.95-.4a46.7,46.7,0,0,1-14.54,32.89l2.51.66-7.47-36.09c-.34-1.64-3.08-1.3-2.95.4a127,127,0,0,1-7.85,55.47c-.6,1.58,2,2.67,2.74,1.16,7.48-15.07,4.11-34.43-11.45-42.88a25.81,25.81,0,0,0-36.33,12.76,1.51,1.51,0,0,0,1.45,1.9,96.76,96.76,0,0,0,68.74-37.43c7.83-10.22,16.18-24.23,14.14-37.66-2-13-14.52-18.14-26.29-18.88-17.53-1.1-35.17,4.37-49.51,14.35-1.57,1.1-.08,3.7,1.51,2.59Z" transform="translate(-84.73 -142.06)"/><path class="cls-1" d="M234.74,264.48A1936.83,1936.83,0,0,1,432,220.25c1.41-.24,1.45-2.68,0-2.89l-3.12-.45c-1.89-.27-2.7,2.62-.8,2.89l3.12.45v-2.89a1936.83,1936.83,0,0,0-197.27,44.22,1.5,1.5,0,0,0,.8,2.89Z" transform="translate(-84.73 -142.06)"/><path class="cls-1" d="M262.58,278.11a1427.2,1427.2,0,0,1,194.85-57.43c1.89-.41,1.09-3.31-.8-2.89a1427.2,1427.2,0,0,0-194.85,57.43c-1.79.67-1,3.57.8,2.89Z" transform="translate(-84.73 -142.06)"/></svg>